<?xml version="1.0" standalone="no"?> <!DOCTYPE svg PUBLIC "-//W3C//DTD SVG 1.0//EN" "http://www.w3.org/TR/2001/REC-SVG-20010904/DTD/svg10.dtd" > <svg xmlns="http://www.w3.org/2000/svg" width="100%" height="100%">
<defs >
<font id="circularstdbook" horiz-adv-x="582" ><font-face
    font-family="CircularStd-Book"
    units-per-em="1000"
    panose-1="2 11 6 4 2 1 1 2 1 2"
    ascent="997"
    descent="-268"
    alphabetic="0" />
<missing-glyph horiz-adv-x="562" d="M80 0V709H482V0H80ZM159 79H403V630H159V79Z" />
<glyph unicode=" " glyph-name="space" horiz-adv-x="250" />
<glyph unicode="!" glyph-name="exclam" horiz-adv-x="311" d="M214 709L189 203H122L96 709H214ZM90 33T90 60T109 106T155 126T201 107T221 60T202 14T155 -5T109 14Z" />
<glyph unicode="&quot;" glyph-name="quotedbl" horiz-adv-x="374" d="M40 599Q40 626 57 643T101 660Q127 660 144 643T161 599Q161 591 159 581L117 393H83L42 580Q40 590 40 599ZM213 599Q213 626 230 643T274 660Q300 660 317 643T334 599Q334 591 332 581L290
393H256L215 580Q213 590 213 599Z" />
<glyph unicode="#" glyph-name="numbersign" horiz-adv-x="738" d="M99 405V481H243L279 648H363L327 481H469L505 648H589L553 481H688V405H537L503 245H639V169H486L450 0H366L402 169H260L224 0H140L176 169H50V245H193L227 405H99ZM311 405L277 245H419L453 405H311Z" />
<glyph unicode="$" glyph-name="dollar" horiz-adv-x="595" d="M346 -117H268V-13Q171 -3 115 54T50 185L145 215Q150 163 181 124T268 75V284L243 289Q165 305 121 352T77 471T130 597T268 661V766H346V660Q429 649 473 603T533 497L443 464Q438 497 413 528T346
571V366L361 363Q443 347 491 296T539 177Q539 106 488 52T346 -13V-117ZM441 172Q441 205 417 231T346 268V75Q393 84 417 110T441 172ZM176 475Q176 402 268 384V574Q225 566 201 539T176 475Z" />
<glyph unicode="%" glyph-name="percent" horiz-adv-x="817" d="M138 532T138 498T160 442T215 419T270 441T292 498T270 554T215 576T160 554ZM55 498Q55 563 102 609T215 655T328 609T376 498Q376 432 328 386T215 340T103 386T55 498ZM534 184T534 150T556
94T611 71T666 93T688 150T666 206T611 228T556 206ZM451 150Q451 215 498 261T611 307T724 261T772 150Q772 84 724 38T611 -8T499 38T451 150ZM227 0H135L601 648H691L227 0Z" />
<glyph unicode="&amp;" glyph-name="ampersand" horiz-adv-x="697" d="M564 0L474 94Q379 -12 275 -12Q180 -12 125 42T70 169Q70 233 100 276T195 367L205 375L192 389Q167 415 154 431T124 481T107 547Q107 628 162 676T290 724Q372 724 425 677T478 551Q478
468 378 394L342 367L474 230L632 406V277L536 166L697 0H564ZM276 78Q313 78 343 98T408 156L411 160L267 311L231 284Q171 238 171 177Q171 139 200 109T276 78ZM204 553Q204 510 258 454L280 430L328 466Q381 505 381 554Q381 590 356 615T291 640Q257 640 231
617T204 553Z" />
<glyph unicode="&apos;" glyph-name="quotesingle" horiz-adv-x="201" d="M40 599Q40 626 57 643T101 660Q127 660 144 643T161 599Q161 591 159 581L117 393H83L42 580Q40 590 40 599Z" />
<glyph unicode="(" glyph-name="parenleft" horiz-adv-x="302" d="M55 34T55 317T245 794L302 744Q136 558 136 317T302 -110L245 -160Q55 34 55 317Z" />
<glyph unicode=")" glyph-name="parenright" horiz-adv-x="302" d="M247 600T247 317T57 -160L0 -110Q166 76 166 317T0 744L57 794Q247 600 247 317Z" />
<glyph unicode="*" glyph-name="asterisk" horiz-adv-x="440" d="M259 709V575L382 617L405 545L281 504L363 399L302 353L219 462L141 354L80 400L159 504L35 545L58 617L180 574V709H259Z" />
<glyph unicode="+" glyph-name="plus" horiz-adv-x="567" d="M55 327H242V522H324V327H512V248H324V51H242V248H55V327Z" />
<glyph unicode="," glyph-name="comma" horiz-adv-x="294" d="M70 64Q70 91 91 111T143 131Q177 131 200 106T224 36Q224 -54 178 -103T76 -159V-107Q112 -99 135 -68T159 1Q152 -4 137 -4Q108 -4 89 14T70 64Z" />
<glyph unicode="-" glyph-name="hyphen" horiz-adv-x="361" d="M316 246H45V328H316V246Z" />
<glyph unicode="." glyph-name="period" horiz-adv-x="279" d="M70 35T70 64T90 113T139 134T188 114T209 64T189 15T139 -5T90 15Z" />
<glyph unicode="/" glyph-name="slash" horiz-adv-x="434" d="M434 709L91 0H0L343 709H434Z" />
<glyph unicode="0" glyph-name="zero" horiz-adv-x="614" d="M147 474T147 324T204 114Q244 72 307 72T410 114Q467 174 467 324T410 534Q370 576 307 576T204 534Q147 474 147 324ZM50 175T50 324T108 559Q177 663 307 663T506 559Q564 473 564 324T506 89Q437
-15 307 -15T108 89Q50 175 50 324Z" />
<glyph unicode="1" glyph-name="one" horiz-adv-x="353" d="M278 0H182V457H25V526Q91 527 136 560T192 648H278V0Z" />
<glyph unicode="2" glyph-name="two" horiz-adv-x="529" d="M141 415L43 427Q42 436 42 453Q42 540 103 601T266 663Q367 663 426 606T485 464Q485 341 363 264L235 182Q166 138 156 91H489V0H35Q37 82 72 144T189 258L297 328Q386 385 386 463Q386 511 354 544T264
577Q203 577 171 540T139 444Q139 435 141 415Z" />
<glyph unicode="3" glyph-name="three" horiz-adv-x="553" d="M225 301L177 382L368 558H58V648H498V560L313 389Q392 389 452 337T513 192Q513 106 450 45T278 -16Q171 -16 107 43T37 188L133 210Q136 147 176 109T277 70Q341 70 377 104T414 190Q414 249 375
280T282 311Q253 311 225 301Z" />
<glyph unicode="4" glyph-name="four" horiz-adv-x="574" d="M35 146V259L313 648H448V237H559V146H448V0H353V146H35ZM353 237V554L125 237H353Z" />
<glyph unicode="5" glyph-name="five" horiz-adv-x="548" d="M35 176L129 204Q133 144 173 107T275 70Q334 70 374 106T414 201Q414 265 374 300T274 335Q201 335 156 288Q142 293 110 306T60 326L144 648H486V558H209L161 372Q204 420 293 420Q390 420 451 362T513
205Q513 111 447 48T275 -16Q175 -16 109 40T35 176Z" />
<glyph unicode="6" glyph-name="six" horiz-adv-x="580" d="M525 627L495 547Q447 575 379 575Q280 575 219 510T151 343Q173 379 217 403T322 427Q421 427 482 368T544 206Q544 105 474 45T304 -15Q200 -15 126 60T51 285Q51 461 145 562T385 663Q474 663 525
627ZM165 206Q165 145 207 108T305 70Q364 70 404 107T445 206Q445 269 405 306T305 343T206 306T165 206Z" />
<glyph unicode="7" glyph-name="seven" horiz-adv-x="483" d="M478 648V554Q453 534 429 511T366 437T296 329T240 185T204 0H103Q109 77 127 149T169 276T220 377T274 457T322 513T357 547L370 558H5V648H478Z" />
<glyph unicode="8" glyph-name="eight" horiz-adv-x="560" d="M280 372Q332 373 366 402T400 478Q400 522 367 552T280 582T193 552T160 478Q160 431 194 402T280 372ZM217 70T280 70T379 101T416 179Q416 227 380 258T280 290T181 259T144 179Q144 132 180 101ZM389
-15T280 -15T108 37T45 171Q45 228 79 270T168 331Q122 348 92 389T62 483Q62 562 124 612T280 663T436 613T498 483Q498 432 468 390T392 331Q446 314 480 271T515 171Q515 90 452 38Z" />
<glyph unicode="9" glyph-name="nine" horiz-adv-x="581" d="M57 23L89 104Q140 73 207 73Q318 73 373 136T432 303Q413 268 370 244T264 220Q174 220 107 278T40 439Q40 537 110 600T279 663Q383 663 457 587T531 365Q531 183 450 84T207 -15Q169 -15 125 -4T57
23ZM419 441Q419 501 377 539T279 577Q222 577 181 540T139 441Q139 378 180 341T279 304Q336 304 377 341T419 441Z" />
<glyph unicode=":" glyph-name="colon" horiz-adv-x="290" d="M76 35T76 64T96 113T145 134T194 114T215 64T195 15T145 -5T96 15ZM75 387T75 416T95 465T144 486T193 466T214 416T194 367T144 347T95 367Z" />
<glyph unicode=";" glyph-name="semicolon" horiz-adv-x="297" d="M75 62Q75 88 95 106T145 125Q178 125 200 102T222 35Q222 -50 179 -96T81 -150V-101Q115 -93 137 -64T160 2Q152 -3 139 -3Q112 -3 94 14T75 62ZM76 387T76 416T96 465T145 486T194 466T215 416T195
367T145 347T96 367Z" />
<glyph unicode="&lt;" glyph-name="less" horiz-adv-x="482" d="M35 244V329L447 535V440L137 287L447 134V39L35 244Z" />
<glyph unicode="=" glyph-name="equal" horiz-adv-x="593" d="M528 346H65V423H528V346ZM528 151H65V230H528V151Z" />
<glyph unicode="&gt;" glyph-name="greater" horiz-adv-x="482" d="M447 329V244L35 39V134L347 287L35 440V535L447 329Z" />
<glyph unicode="?" glyph-name="question" horiz-adv-x="510" d="M284 203H196Q195 215 195 238Q195 338 278 394L322 424Q375 460 375 522Q375 570 344 603T256 636Q195 636 163 598T131 508Q131 478 138 459L41 471Q35 492 35 519Q35 568 57 613T131 691T256
724Q356 724 415 664T475 523Q475 418 373 349L327 318Q283 288 283 222Q283 213 284 203ZM174 33T174 60T193 106T239 126T285 107T305 60T286 14T239 -5T193 14Z" />
<glyph unicode="@" glyph-name="at" horiz-adv-x="826" d="M601 137Q564 137 537 153T502 201Q456 135 383 135Q315 135 273 182T230 306Q230 405 289 472T430 539Q465 539 495 522T537 473L546 526H625L571 275Q568 260 568 247Q568 206 606 206Q648 206 681
263T714 396Q714 507 637 579T434 651Q301 651 214 563T127 332Q127 198 212 112T445 26Q562 26 650 96L691 42Q648 2 580 -22T445 -47Q269 -47 157 58T45 333Q45 504 158 614T433 724Q586 724 688 631T791 397Q791 286 736 212T601 137ZM515 370Q515 415 493 439T431
464Q379 464 346 420T312 317Q312 208 397 208Q448 208 480 253T515 370Z" />
<glyph unicode="A" glyph-name="A" horiz-adv-x="697" d="M581 0L504 198H190L115 0H10L292 709H405L687 0H581ZM346 607L225 289H469L346 607Z" />
<glyph unicode="B" glyph-name="B" horiz-adv-x="602" d="M90 709H321Q420 709 477 656T535 517Q535 462 506 422T429 364Q488 349 522 302T557 193Q557 109 496 55T338 0H90V709ZM188 399H310Q368 399 402 430T436 512Q436 563 401 593T306 623H188V399ZM188
86H324Q384 86 420 117T457 199Q457 252 424 283T328 315H188V86Z" />
<glyph unicode="C" glyph-name="C" horiz-adv-x="750" d="M397 -15Q252 -15 149 85T45 355Q45 469 97 555T228 682T397 724Q517 724 599 664T709 499L618 467Q598 547 541 590T397 634Q293 634 219 561T145 355T219 149T397 75Q484 75 542 121T623 245L710 213Q681
110 599 48T397 -15Z" />
<glyph unicode="D" glyph-name="D" horiz-adv-x="720" d="M188 87H333Q437 87 505 156T574 353Q574 482 507 552T335 622H188V87ZM336 0H90V709H338Q481 709 578 615T675 353Q675 187 577 94T336 0Z" />
<glyph unicode="E" glyph-name="E" horiz-adv-x="581" d="M521 0H90V709H521V618H188V400H490V308H188V91H521V0Z" />
<glyph unicode="F" glyph-name="F" horiz-adv-x="551" d="M188 0H90V709H521V618H188V390H490V298H188V0Z" />
<glyph unicode="G" glyph-name="G" horiz-adv-x="765" d="M704 0H625L616 100Q590 53 531 19T389 -15Q298 -15 221 26T95 154T45 355T97 556T227 683T396 724Q510 724 594 666T710 510L621 472Q597 549 538 591T396 634Q293 634 219 561T145 355Q145 221 217 148T392
74Q448 74 491 92T559 139T596 199T611 259H365V347H704V0Z" />
<glyph unicode="H" glyph-name="H" horiz-adv-x="738" d="M648 0H550V315H188V0H90V709H188V406H550V709H648V0Z" />
<glyph unicode="I" glyph-name="I" horiz-adv-x="280" d="M190 0H90V709H190V0Z" />
<glyph unicode="J" glyph-name="J" horiz-adv-x="534" d="M20 211V257L118 279V212Q118 144 151 110T240 76Q294 76 325 110T356 205V709H454V212Q454 116 396 51T241 -15Q138 -15 79 46T20 211Z" />
<glyph unicode="K" glyph-name="K" horiz-adv-x="668" d="M529 0L289 322L188 214V0H90V709H188V344L520 709H649L354 393L653 0H529Z" />
<glyph unicode="L" glyph-name="L" horiz-adv-x="548" d="M523 0H90V709H188V92H523V0Z" />
<glyph unicode="M" glyph-name="M" horiz-adv-x="946" d="M856 0H759V552L517 0H427L187 552V0H90V709H223L473 132L725 709H856V0Z" />
<glyph unicode="N" glyph-name="N" horiz-adv-x="763" d="M673 0H571L188 578V0H90V709H221L575 165V709H673V0Z" />
<glyph unicode="O" glyph-name="O" horiz-adv-x="802" d="M145 487T145 355T220 149T401 75T582 149T657 355T582 560T401 634T220 561ZM45 355Q45 441 75 512T156 628T270 699T401 724T532 699T645 629T726 512T757 355Q757 241 705 155T572 27T401 -15T230 27T98
155T45 355Z" />
<glyph unicode="P" glyph-name="P" horiz-adv-x="597" d="M188 378H330Q393 378 430 410T467 498Q467 554 430 587T330 621H188V378ZM348 290H188V0H90V709H348Q445 709 506 649T567 499Q567 408 506 349T348 290Z" />
<glyph unicode="Q" glyph-name="Q" horiz-adv-x="802" d="M45 355Q45 441 75 512T156 628T270 699T401 724T532 699T645 629T726 512T757 355Q757 196 657 93L740 0L673 -59L587 36Q503 -15 401 -15Q310 -15 230 27T98 155T45 355ZM145 487T145 355T220 149T401
75Q469 75 525 106L402 244L470 303L594 163Q657 239 657 355Q657 487 582 560T401 634T220 561Z" />
<glyph unicode="R" glyph-name="R" horiz-adv-x="619" d="M457 0L295 290H189V0H90V709H357Q455 709 514 649T574 498Q574 421 528 367T402 297L571 0H457ZM189 378H339Q399 378 436 410T473 498Q473 554 436 587T339 621H189V378Z" />
<glyph unicode="S" glyph-name="S" horiz-adv-x="593" d="M542 548L454 517Q447 563 409 600T304 638Q245 638 206 604T167 520Q167 481 190 454T258 417L364 394Q452 375 500 323T548 195Q548 109 480 47T303 -15Q184 -15 117 47T38 196L132 226Q138 162 182
118T302 74Q372 74 410 106T448 187Q448 227 421 256T342 297L241 319Q162 336 115 386T68 513Q68 597 136 660T302 724Q411 724 469 671T542 548Z" />
<glyph unicode="T" glyph-name="T" horiz-adv-x="592" d="M582 618H345V0H247V618H10V709H582V618Z" />
<glyph unicode="U" glyph-name="U" horiz-adv-x="670" d="M447 -15T335 -15T152 53T80 242V709H177V245Q177 164 218 120T335 76T451 120T492 245V709H590V242Q590 121 519 53Z" />
<glyph unicode="V" glyph-name="V" horiz-adv-x="657" d="M328 126L544 709H647L374 0H277L10 709H114L328 126Z" />
<glyph unicode="W" glyph-name="W" horiz-adv-x="1004" d="M735 148L888 709H989L787 0H686L501 575L318 0H220L15 709H116L272 154L450 709H553L735 148Z" />
<glyph unicode="X" glyph-name="X" horiz-adv-x="617" d="M607 709L366 355L604 0H487L308 277L125 0H10L252 355L12 709H130L309 431L491 709H607Z" />
<glyph unicode="Y" glyph-name="Y" horiz-adv-x="618" d="M260 303L10 709H128L312 393L496 709H608L358 303V0H260V303Z" />
<glyph unicode="Z" glyph-name="Z" horiz-adv-x="632" d="M592 0H45V98L468 618H55V709H587V614L162 92H592V0Z" />
<glyph unicode="[" glyph-name="bracketleft" horiz-adv-x="288" d="M283 -148H90V785H283V709H172V-73H283V-148Z" />
<glyph unicode="\" glyph-name="backslash" horiz-adv-x="434" d="M341 0L0 709H93L434 0H341Z" />
<glyph unicode="]" glyph-name="bracketright" horiz-adv-x="288" d="M198 -148H5V-73H116V709H5V785H198V-148Z" />
<glyph unicode="^" glyph-name="asciicircum" horiz-adv-x="521" d="M496 354H397L261 612L124 354H25L219 710H302L496 354Z" />
<glyph unicode="_" glyph-name="underscore" horiz-adv-x="542" d="M527 -79H15V0H527V-79Z" />
<glyph unicode="`" glyph-name="grave" horiz-adv-x="272" d="M160 543L34 689H152L238 543H160Z" />
<glyph unicode="a" glyph-name="a" horiz-adv-x="523" d="M50 129Q50 191 90 228T196 275L326 294Q363 299 363 330Q363 368 337 392T259 416Q211 416 183 390T150 319L60 340Q67 409 123 452T257 496Q359 496 408 447T457 320V79Q457 36 463 0H371Q366 30 366
65Q346 33 308 9T211 -15Q140 -15 95 27T50 129ZM224 64Q287 64 325 98T363 206V228L216 206Q184 201 165 183T146 134Q146 106 167 85T224 64Z" />
<glyph unicode="b" glyph-name="b" horiz-adv-x="593" d="M173 0H80V724H173V413Q192 448 233 471T332 495Q437 495 495 424T553 243Q553 132 493 60T329 -13Q221 -13 173 70V0ZM457 165T457 243T419 366T315 412Q252 412 212 366T172 243T212 119T315 71Q379
71 418 118Z" />
<glyph unicode="c" glyph-name="c" horiz-adv-x="530" d="M282 409Q221 409 179 365T136 241Q136 162 178 117T283 72Q343 72 374 102T417 171L500 135Q480 75 425 30T283 -15Q178 -15 109 58T40 241Q40 353 109 424T282 496Q370 496 424 451T496 343L411 307Q400
349 369 379T282 409Z" />
<glyph unicode="d" glyph-name="d" horiz-adv-x="588" d="M136 242Q136 166 173 118T277 70Q340 70 378 119T416 244Q416 319 379 365T278 411T175 364T136 242ZM417 65V73Q398 36 360 12T268 -13Q165 -13 103 59T40 242Q40 347 104 420T268 494Q327 494 364 471T415
413V724H508V89Q508 40 513 0H422Q417 28 417 65Z" />
<glyph unicode="e" glyph-name="e" horiz-adv-x="542" d="M141 290H404Q402 344 368 378T272 413Q216 413 180 377T141 290ZM418 165L499 137Q478 70 421 28T283 -15Q182 -15 112 54T41 242Q41 352 109 424T271 496Q380 496 441 428T502 244Q502 226 500 214H138Q139
150 180 109T283 68Q386 68 418 165Z" />
<glyph unicode="f" glyph-name="f" horiz-adv-x="343" d="M322 396H206V0H109V396H20V481H109V562Q109 639 154 683T267 727Q310 727 323 717V633Q308 639 282 639Q251 639 229 621T206 557V481H322V396Z" />
<glyph unicode="g" glyph-name="g" horiz-adv-x="578" d="M45 -26L136 -5Q141 -56 177 -89T267 -123Q414 -123 414 33V102Q396 67 358 45T267 23Q171 23 109 88T46 256Q46 355 108 422T267 490Q377 490 415 414V481H508V36Q508 -12 496 -53T456 -130T381 -185T267
-205Q178 -205 116 -155T45 -26ZM281 102Q342 102 380 144T418 256T380 367T281 410Q219 410 181 368T142 256Q142 185 179 144T281 102Z" />
<glyph unicode="h" glyph-name="h" horiz-adv-x="562" d="M174 283V0H80V724H174V425Q222 495 320 495Q403 495 447 442T492 305V0H398V289Q398 410 286 410Q234 410 205 375T174 283Z" />
<glyph unicode="i" glyph-name="i" horiz-adv-x="253" d="M173 0H80V481H173V0ZM59 635T59 663T78 711T126 731T174 712T194 663Q194 635 174 616T126 596T79 615Z" />
<glyph unicode="j" glyph-name="j" horiz-adv-x="254" d="M80 -52V481H174V-56Q174 -122 138 -163T41 -205Q6 -205 -15 -198V-119Q0 -122 15 -122Q80 -122 80 -52ZM59 637T59 665T78 713T126 733T174 714T194 665Q194 637 174 618T126 598T79 617Z" />
<glyph unicode="k" glyph-name="k" horiz-adv-x="525" d="M511 481L306 278L515 0H397L240 212L173 145V0H80V724H173V268L381 481H511Z" />
<glyph unicode="l" glyph-name="l" horiz-adv-x="254" d="M174 0H80V724H174V0Z" />
<glyph unicode="m" glyph-name="m" horiz-adv-x="857" d="M173 0H80V481H170V417Q192 455 232 475T316 495Q363 495 402 472T460 404Q510 495 621 495Q690 495 738 448T787 312V0H694V302Q694 352 669 382T592 412Q543 412 512 378T481 291V0H387V302Q387 352
362 382T285 412Q235 412 204 378T173 290V0Z" />
<glyph unicode="n" glyph-name="n" horiz-adv-x="562" d="M174 278V0H80V481H172V412Q220 495 320 495Q403 495 447 442T492 305V0H398V289Q398 410 286 410Q233 410 204 373T174 278Z" />
<glyph unicode="o" glyph-name="o" horiz-adv-x="572" d="M223 69T286 69T392 114T436 241Q436 321 393 366T286 412T180 367T136 241Q136 160 179 115ZM179 496T286 496T462 424T532 241Q532 130 463 58T286 -15T109 57T40 241Q40 351 109 423Z" />
<glyph unicode="p" glyph-name="p" horiz-adv-x="593" d="M173 -190H80V481H171V406Q192 444 234 468T332 492Q436 492 494 421T553 241Q553 131 493 59T329 -13Q276 -13 235 9T173 65V-190ZM457 241Q457 314 419 361T315 409Q251 409 212 362T172 241Q172 166
211 119T315 71T418 118T457 241Z" />
<glyph unicode="q" glyph-name="q" horiz-adv-x="581" d="M511 -190H418V68Q399 31 360 9T268 -13Q167 -13 104 60T40 242Q40 348 101 420T266 493Q324 493 363 468T420 407V481H511V-190ZM136 317T136 242T174 119T277 70Q340 70 379 118T419 242T380 363T277
410Q212 410 174 364Z" />
<glyph unicode="r" glyph-name="r" horiz-adv-x="367" d="M347 486V386Q326 389 306 389Q174 389 174 241V0H80V481H172V397Q216 489 316 489Q332 489 347 486Z" />
<glyph unicode="s" glyph-name="s" horiz-adv-x="452" d="M35 125L120 155Q125 116 154 91T232 65Q270 65 292 83T314 129Q314 177 252 191L170 209Q114 221 82 257T50 344Q50 406 100 451T221 496Q267 496 303 483T359 447T389 406T404 367L321 336Q319 348 314
359T299 385T268 407T221 416Q186 416 164 397T141 352Q141 306 196 294L274 277Q338 263 372 226T407 134Q407 77 361 31T231 -15Q142 -15 92 29T35 125Z" />
<glyph unicode="t" glyph-name="t" horiz-adv-x="355" d="M206 633V481H310V396H206V146Q206 112 221 96T273 80Q294 80 310 84V4Q286 -5 246 -5Q184 -5 148 31T112 132V396H20V481H46Q83 481 101 501T120 555V633H206Z" />
<glyph unicode="u" glyph-name="u" horiz-adv-x="566" d="M397 58Q378 22 339 4T255 -15Q173 -15 124 39T75 178V481H169V192Q169 138 195 103T278 68T363 101T392 191V481H486V89Q486 42 491 0H401Q397 22 397 58Z" />
<glyph unicode="v" glyph-name="v" horiz-adv-x="502" d="M492 481L300 0H205L10 481H116L253 110L391 481H492Z" />
<glyph unicode="w" glyph-name="w" horiz-adv-x="793" d="M351 481H448L573 119L679 481H778L622 0H525L397 366L272 0H173L15 481H118L226 119L351 481Z" />
<glyph unicode="x" glyph-name="x" horiz-adv-x="491" d="M10 0L189 245L16 481H130L248 312L364 481H475L304 245L481 0H368L244 177L122 0H10Z" />
<glyph unicode="y" glyph-name="y" horiz-adv-x="523" d="M200 -201H97L217 53L10 481H118L268 149L412 481H513L200 -201Z" />
<glyph unicode="z" glyph-name="z" horiz-adv-x="466" d="M426 0H40V82L304 396H44V481H421V399L157 85H426V0Z" />
<glyph unicode="{" glyph-name="braceleft" horiz-adv-x="353" d="M45 275V361Q93 361 124 385T155 462V599Q155 785 335 785H348V710H335Q281 710 259 686T237 605V441Q237 391 210 359T133 318Q182 309 209 277T237 195V32Q237 -24 259 -48T335 -73H348V-148H335Q155
-148 155 38V174Q155 226 124 250T45 275Z" />
<glyph unicode="|" glyph-name="bar" horiz-adv-x="262" d="M172 -148H90V785H172V-148Z" />
<glyph unicode="}" glyph-name="braceright" horiz-adv-x="353" d="M308 361V275Q260 275 229 251T198 174V38Q198 -148 18 -148H5V-73H18Q72 -73 94 -49T116 32V195Q116 245 143 277T220 318Q171 327 144 359T116 441V605Q116 661 94 685T18 710H5V785H18Q198
785 198 599V462Q198 410 229 386T308 361Z" />
<glyph unicode="~" glyph-name="asciitilde" horiz-adv-x="570" d="M288 239L242 264Q214 279 188 279Q134 279 92 222L35 268Q93 363 187 363Q236 363 282 337L328 312Q356 296 385 296Q443 296 478 351L535 305Q479 212 385 212Q338 212 288 239Z" />
</font>
</defs>
</svg>
