<?xml version="1.0" standalone="no"?> <!DOCTYPE svg PUBLIC "-//W3C//DTD SVG 1.0//EN" "http://www.w3.org/TR/2001/REC-SVG-20010904/DTD/svg10.dtd" > <svg xmlns="http://www.w3.org/2000/svg" width="100%" height="100%">
<defs >
<font id="circularstdbold" horiz-adv-x="597" ><font-face
    font-family="CircularStd-Bold"
    units-per-em="1000"
    panose-1="2 11 8 4 2 1 1 1 1 2"
    ascent="997"
    descent="-268"
    alphabetic="0" />
<missing-glyph horiz-adv-x="584" d="M71 0V709H513V0H71ZM180 109H404V600H180V109Z" />
<glyph unicode=" " glyph-name="space" horiz-adv-x="247" />
<glyph unicode="!" glyph-name="exclam" horiz-adv-x="334" d="M247 709L215 216H118L86 709H247ZM88 38T88 71T111 127T166 151Q199 151 222 128T246 71T223 15T166 -8Q134 -8 111 15Z" />
<glyph unicode="&quot;" glyph-name="quotedbl" horiz-adv-x="402" d="M34 584Q34 617 55 638T109 660T162 639T183 584Q183 570 179 558L132 375H85L38 558Q34 578 34 584ZM219 584Q219 617 240 638T294 660T347 639T368 584Q368 570 364 558L317 375H270L223
558Q219 578 219 584Z" />
<glyph unicode="#" glyph-name="numbersign" horiz-adv-x="742" d="M91 396V492H234L268 648H373L339 492H470L504 648H608L574 492H701V396H554L524 256H651V161H503L469 0H365L399 161H268L234 0H129L163 161H41V256H184L214 396H91ZM319 396L289 256H420L450 396H319Z" />
<glyph unicode="$" glyph-name="dollar" horiz-adv-x="596" d="M360 -117H258V-10Q161 3 107 63T44 195L168 225Q173 173 208 139T308 104Q356 104 383 124T411 179Q411 234 336 250L244 270Q162 288 116 337T69 458Q69 536 122 591T258 659V766H360V656Q439 642
483 595T539 488L416 453Q410 488 384 517T302 546Q256 546 230 523T203 468Q203 416 272 401L363 380Q454 360 500 309T546 187Q546 115 497 60T360 -9V-117Z" />
<glyph unicode="%" glyph-name="percent" horiz-adv-x="854" d="M144 496Q144 465 163 446T210 426Q239 426 257 445T276 496T258 546T210 565Q182 565 163 546T144 496ZM44 428T44 496T93 612T210 660T327 612T377 496Q377 427 328 380T210 333Q141 333 93 380ZM581
152Q581 121 600 102T647 82Q676 82 694 101T713 152T695 202T647 221Q619 221 600 202T581 152ZM481 84T481 152T530 268T647 316T764 268T814 152Q814 83 765 36T647 -11Q578 -11 530 36ZM258 0H142L600 649H716L258 0Z" />
<glyph unicode="&amp;" glyph-name="ampersand" horiz-adv-x="717" d="M545 0L472 77Q384 -13 282 -13Q183 -13 125 44T67 177Q67 239 96 282T188 371L193 374L182 386Q104 469 104 540Q104 625 163 675T300 725Q385 725 441 675T497 546Q497 459 397 384L370
364L477 251L656 438V272L557 168L717 0H545ZM284 103Q336 103 392 162L271 290L256 279Q199 237 199 185Q199 153 223 128T284 103ZM230 544Q230 509 272 467L291 446L326 472Q371 505 371 547Q371 576 351 595T299 615Q272 615 251 597T230 544Z" />
<glyph unicode="&apos;" glyph-name="quotesingle" horiz-adv-x="217" d="M34 584Q34 617 55 638T109 660T162 639T183 584Q183 570 179 558L132 375H85L38 558Q34 578 34 584Z" />
<glyph unicode="(" glyph-name="parenleft" horiz-adv-x="330" d="M43 322Q43 613 253 819L330 748Q155 562 155 322Q155 81 330 -105L253 -175Q43 30 43 322Z" />
<glyph unicode=")" glyph-name="parenright" horiz-adv-x="330" d="M287 322Q287 30 77 -175L0 -105Q175 81 175 322Q175 562 0 748L77 819Q287 613 287 322Z" />
<glyph unicode="*" glyph-name="asterisk" horiz-adv-x="455" d="M281 709V582L397 621L430 523L312 485L386 385L303 324L227 425L153 324L70 386L143 485L25 523L57 621L174 582V709H281Z" />
<glyph unicode="+" glyph-name="plus" horiz-adv-x="589" d="M49 349H238V544H350V349H540V240H350V44H238V240H49V349Z" />
<glyph unicode="," glyph-name="comma" horiz-adv-x="312" d="M61 44T61 80T87 140T152 164Q197 164 224 132T251 49Q251 -51 197 -106T75 -169V-105Q111 -97 140 -67T170 3Q162 -3 144 -3Q107 -3 84 20Z" />
<glyph unicode="-" glyph-name="hyphen" horiz-adv-x="380" d="M335 238H45V356H335V238Z" />
<glyph unicode="." glyph-name="period" horiz-adv-x="311" d="M64 46T64 84T91 148T155 175Q193 175 220 149T247 84T220 20T155 -7Q118 -7 91 19Z" />
<glyph unicode="/" glyph-name="slash" horiz-adv-x="475" d="M475 718L120 -9H0L354 718H475Z" />
<glyph unicode="0" glyph-name="zero" horiz-adv-x="624" d="M179 434T179 324T214 159Q247 106 312 106Q376 106 409 159Q445 213 445 324T409 489Q376 542 312 542Q247 542 214 489Q179 434 179 324ZM41 180T41 324T98 555Q171 664 312 664T525 555Q583 467
583 324T525 93Q453 -16 312 -16T98 93Q41 180 41 324Z" />
<glyph unicode="1" glyph-name="one" horiz-adv-x="396" d="M324 0H187V434H31V527Q101 528 148 562T205 649H324V0Z" />
<glyph unicode="2" glyph-name="two" horiz-adv-x="543" d="M173 398L42 402Q37 425 37 447Q37 537 101 600T274 664Q380 664 444 604T508 455Q508 331 382 254L257 178Q213 150 201 119H512V0H32Q33 91 67 159T185 277L292 341Q369 387 369 453Q369 490 344 516T271
542Q221 542 195 512T168 434Q168 416 173 398Z" />
<glyph unicode="3" glyph-name="three" horiz-adv-x="549" d="M214 288L153 384L323 530H39V649H498V538L330 398Q407 395 462 341T518 200Q518 112 450 49T269 -15Q160 -15 92 45T18 192L151 218Q153 168 185 136T269 104Q319 104 349 132T379 202Q379 247 350
272T273 298Q242 298 214 288Z" />
<glyph unicode="4" glyph-name="four" d="M32 139V283L305 649H475V257H582V139H475V0H339V139H32ZM339 257V505L154 257H339Z" />
<glyph unicode="5" glyph-name="five" horiz-adv-x="554" d="M29 182L158 211Q160 165 192 134T276 102Q324 102 356 131T388 208Q388 261 355 289T273 317Q212 317 173 273Q102 300 47 316L124 649H490V530H218L186 387Q229 427 303 427Q403 427 464 370T525
210Q525 116 457 50T276 -16Q174 -16 105 43T29 182Z" />
<glyph unicode="6" glyph-name="six" horiz-adv-x="582" d="M538 634L500 522Q446 545 393 545Q308 545 249 497T178 359Q198 389 238 410T332 431Q433 431 494 372T556 213Q556 114 485 50T305 -15Q193 -15 118 63T42 283Q42 457 141 560T402 664Q487 664 538
634ZM190 210Q190 162 223 132T304 101Q353 101 386 131T419 210T386 288T304 318Q256 318 223 289T190 210Z" />
<glyph unicode="7" glyph-name="seven" horiz-adv-x="503" d="M498 649V534Q475 515 454 494T395 423T327 317T272 177T238 0H95Q103 98 130 188T192 338T260 443T316 510L339 530H5V649H498Z" />
<glyph unicode="8" glyph-name="eight" horiz-adv-x="568" d="M284 383Q328 384 354 408T380 468Q380 502 354 526T284 550Q241 550 215 526T189 468Q189 432 214 408T284 383ZM233 99T284 99T364 125T394 189Q394 227 365 254T284 281T204 254T175 189Q175 152
204 126ZM394 -15T284 -15T107 38T39 175Q39 227 70 270T154 333Q107 350 80 391T52 478Q52 560 117 612T284 664T450 612T516 478Q516 433 489 392T415 333Q466 314 497 271T529 175Q529 91 462 38Z" />
<glyph unicode="9" glyph-name="nine" horiz-adv-x="583" d="M53 21L87 132Q137 104 202 104Q292 104 346 152T408 288Q387 256 348 237T258 218Q164 218 99 278T34 436Q34 536 104 600T283 664Q395 664 468 585T542 357Q542 180 455 83T203 -15Q111 -15 53 21ZM390
393T390 440T358 517T278 547Q232 547 200 517T167 440Q167 392 199 363T278 333T357 363Z" />
<glyph unicode=":" glyph-name="colon" horiz-adv-x="312" d="M67 45T67 82T93 145T156 172Q194 172 220 146T247 82T221 19T156 -7Q119 -7 93 19ZM66 372T66 409T92 472T155 499Q193 499 219 473T246 409T220 346T155 320Q118 320 92 346Z" />
<glyph unicode=";" glyph-name="semicolon" horiz-adv-x="314" d="M68 75Q68 109 92 132T154 155Q197 155 222 124T248 46Q248 -49 197 -101T81 -162V-101Q116 -93 143 -64T171 2Q165 -4 147 -4Q112 -4 90 18T68 75ZM67 372T67 409T93 472T156 499Q194 499 220
473T247 409T221 346T156 320Q119 320 93 346Z" />
<glyph unicode="&lt;" glyph-name="less" horiz-adv-x="497" d="M35 244V345L465 562V439L169 296L465 153V28L35 244Z" />
<glyph unicode="=" glyph-name="equal" horiz-adv-x="603" d="M544 341H59V448H544V341ZM544 142H59V250H544V142Z" />
<glyph unicode="&gt;" glyph-name="greater" horiz-adv-x="497" d="M462 345V245L32 28V151L328 294L32 437V562L462 345Z" />
<glyph unicode="?" glyph-name="question" horiz-adv-x="529" d="M303 216H195Q191 242 191 257Q191 342 270 402L318 438Q361 470 361 517Q361 554 335 580T261 607Q211 607 185 574T159 494Q159 474 163 462L37 467Q32 484 32 512Q32 598 93 661T261 724Q371
724 434 665T497 525Q497 418 398 348L357 319Q303 280 303 222V216ZM172 38T172 71T195 127T251 151T307 128T331 71T308 15T251 -8T195 15Z" />
<glyph unicode="@" glyph-name="at" horiz-adv-x="827" d="M589 139Q550 139 525 156T492 200Q474 170 443 154T376 137Q310 137 267 185T224 310Q224 407 282 471T421 535Q452 535 479 521T518 478L526 522H621L569 277Q567 267 567 259Q567 245 575 236T599
226Q637 226 667 275T697 395Q697 501 624 567T433 634Q306 634 223 551T140 333Q140 205 221 123T441 41Q546 41 625 100L673 32Q633 -4 568 -26T441 -48Q264 -48 152 57T39 331Q39 503 153 614T432 725Q586 725 689 631T792 396Q792 286 731 214T589 139ZM496
366Q496 403 479 424T428 445Q384 445 356 408T327 319Q327 227 398 227Q439 227 466 266T496 366Z" />
<glyph unicode="A" glyph-name="A" horiz-adv-x="722" d="M562 0L503 162H215L156 0H10L282 709H442L712 0H562ZM359 556L261 288H457L359 556Z" />
<glyph unicode="B" glyph-name="B" horiz-adv-x="610" d="M81 709H336Q437 709 494 656T552 518Q552 464 523 423T449 366Q503 353 538 308T574 198Q574 111 514 56T355 0H81V709ZM217 416H315Q362 416 389 440T416 505T390 569T314 593H217V416ZM217 115H329Q379
115 407 139T436 207T409 276T331 302H217V115Z" />
<glyph unicode="C" glyph-name="C" horiz-adv-x="764" d="M402 -15Q249 -15 144 87T39 354Q39 518 145 621T400 724Q536 724 618 655T725 489L595 448Q580 508 532 549T400 591Q313 591 248 529T182 354Q182 246 246 183T402 120Q485 120 534 163T601 265L730
226Q719 183 695 142T631 65T533 7T402 -15Z" />
<glyph unicode="D" glyph-name="D" horiz-adv-x="724" d="M219 128H329Q422 128 482 186T542 354T482 522T330 581H219V128ZM334 0H81V709H335Q490 709 587 614T685 354Q685 190 587 95T334 0Z" />
<glyph unicode="E" glyph-name="E" horiz-adv-x="582" d="M525 0H81V709H525V579H219V417H496V294H219V130H525V0Z" />
<glyph unicode="F" glyph-name="F" horiz-adv-x="562" d="M220 0H81V709H529V578H219V403H495V276H220V0Z" />
<glyph unicode="G" glyph-name="G" horiz-adv-x="781" d="M723 0H611L602 81Q575 40 522 13T393 -15Q245 -15 142 86T39 354Q39 520 145 622T402 724Q532 724 614 661T726 506L594 459Q578 514 530 554T402 595Q312 595 246 533T179 354Q179 239 243 175T403 111Q491
111 538 155T593 249H369V369H723V0Z" />
<glyph unicode="H" glyph-name="H" horiz-adv-x="748" d="M667 0H528V294H219V0H81V709H219V424H528V709H667V0Z" />
<glyph unicode="I" glyph-name="I" horiz-adv-x="302" d="M221 0H81V709H221V0Z" />
<glyph unicode="J" glyph-name="J" horiz-adv-x="557" d="M20 216V263L153 287V222Q154 169 180 143T251 116Q294 116 319 144T345 219V709H483V219Q483 121 418 53T252 -15Q147 -15 84 48T20 216Z" />
<glyph unicode="K" glyph-name="K" horiz-adv-x="698" d="M513 0L307 294L219 197V0H81V709H219V388L503 709H684L403 400L686 0H513Z" />
<glyph unicode="L" glyph-name="L" horiz-adv-x="560" d="M535 0H81V709H219V132H535V0Z" />
<glyph unicode="M" glyph-name="M" horiz-adv-x="953" d="M872 0H736V497L532 0H417L213 493V0H81V709H263L476 197L684 709H872V0Z" />
<glyph unicode="N" glyph-name="N" horiz-adv-x="767" d="M686 0H541L219 503V0H81V709H253L548 240V709H686V0Z" />
<glyph unicode="O" glyph-name="O" horiz-adv-x="807" d="M182 468T182 355T248 181T403 119Q493 119 559 180T625 355T559 529T403 591Q314 591 248 530ZM39 354Q39 520 146 622T403 724Q554 724 661 622T768 354Q768 189 661 87T403 -15Q253 -15 146 87T39 354Z" />
<glyph unicode="P" glyph-name="P" horiz-adv-x="606" d="M220 386H329Q380 386 410 413T440 487Q440 534 411 561T329 589H220V386ZM346 267H219V0H81V709H346Q450 709 514 647T579 488T515 329T346 267Z" />
<glyph unicode="Q" glyph-name="Q" horiz-adv-x="807" d="M39 354Q39 520 146 622T403 724Q554 724 661 622T768 354Q768 209 681 109L766 15L675 -63L588 33Q503 -15 403 -15Q253 -15 146 87T39 354ZM182 468T182 355T248 181T403 119Q452 119 494 137L383 259L475
338L586 214Q625 273 625 355Q625 468 559 529T403 591Q314 591 248 530Z" />
<glyph unicode="R" glyph-name="R" horiz-adv-x="625" d="M431 0L292 273H220V0H81V709H358Q460 709 522 647T584 491Q584 417 544 364T433 290L585 0H431ZM220 392H332Q384 392 413 419T443 490Q443 535 414 562T332 589H220V392Z" />
<glyph unicode="S" glyph-name="S" horiz-adv-x="604" d="M558 540L434 502Q427 540 396 571T305 602Q256 602 225 576T194 512Q194 447 271 432L370 413Q464 395 516 338T568 204Q568 116 499 51T312 -15Q245 -15 191 5T104 58T53 129T30 207L158 241Q163 184
202 146T313 108Q367 108 397 132T428 195Q428 226 406 248T342 279L243 299Q157 317 107 370T57 502Q57 596 129 660T304 724Q365 724 413 707T490 662T535 603T558 540Z" />
<glyph unicode="T" glyph-name="T" horiz-adv-x="619" d="M603 578H379V0H240V578H16V709H603V578Z" />
<glyph unicode="U" glyph-name="U" horiz-adv-x="693" d="M346 -16Q228 -16 151 54T74 251V709H212V261Q212 192 247 156T346 119Q410 119 445 155T481 261V709H619V251Q619 125 542 55T346 -16Z" />
<glyph unicode="V" glyph-name="V" horiz-adv-x="687" d="M346 182L531 709H677L414 0H272L10 709H161L346 182Z" />
<glyph unicode="W" glyph-name="W" horiz-adv-x="1027" d="M746 219L874 709H1015L819 0H677L515 505L353 0H209L12 709H158L288 221L445 709H588L746 219Z" />
<glyph unicode="X" glyph-name="X" horiz-adv-x="669" d="M651 709L419 354L652 0H485L332 245L178 0H16L249 355L17 709H183L335 464L490 709H651Z" />
<glyph unicode="Y" glyph-name="Y" horiz-adv-x="655" d="M257 298L10 709H172L331 428L490 709H645L395 298V0H257V298Z" />
<glyph unicode="Z" glyph-name="Z" horiz-adv-x="640" d="M597 0H39V134L408 578H52V709H592V580L217 132H597V0Z" />
<glyph unicode="[" glyph-name="bracketleft" horiz-adv-x="317" d="M312 -164H81V810H312V709H192V-61H312V-164Z" />
<glyph unicode="\" glyph-name="backslash" horiz-adv-x="476" d="M354 -9L0 718H123L476 -9H354Z" />
<glyph unicode="]" glyph-name="bracketright" horiz-adv-x="317" d="M236 -164H5V-61H124V709H5V810H236V-164Z" />
<glyph unicode="^" glyph-name="asciicircum" horiz-adv-x="530" d="M514 351H389L266 582L143 351H16L214 709H316L514 351Z" />
<glyph unicode="_" glyph-name="underscore" horiz-adv-x="523" d="M517 -109H6V0H517V-109Z" />
<glyph unicode="`" glyph-name="grave" horiz-adv-x="296" d="M162 551L26 701H180L270 551H162Z" />
<glyph unicode="a" glyph-name="a" horiz-adv-x="539" d="M41 134Q41 197 82 235T188 283L309 301Q346 306 346 336Q346 364 325 382T263 400Q221 400 197 377T169 320L51 345Q58 409 114 458T262 507Q372 507 424 455T476 320V78Q476 34 482 0H360Q355 22 355
59Q308 -14 210 -14Q134 -14 88 30T41 134ZM238 85Q285 85 315 111T346 199V221L235 204Q174 195 174 142Q174 118 191 102T238 85Z" />
<glyph unicode="b" glyph-name="b" horiz-adv-x="612" d="M200 0H71V724H202V438Q220 466 259 485T351 505Q456 505 517 433T578 248T514 62T346 -12Q245 -12 200 60V0ZM445 182T445 247T411 349T323 386T235 349T200 247T235 145T323 107Q376 107 410 144Z" />
<glyph unicode="c" glyph-name="c" horiz-adv-x="550" d="M292 384Q239 384 203 347T167 246T203 145T293 107Q340 107 368 131T406 190L523 151Q505 83 445 34T293 -15Q183 -15 109 59T34 246Q34 359 107 433T289 507Q383 507 443 459T520 341L401 301Q377 384 292 384Z" />
<glyph unicode="d" glyph-name="d" horiz-adv-x="613" d="M540 724V89Q540 40 544 0H417Q412 25 412 57Q395 26 359 7T274 -12Q169 -12 102 61T34 247Q34 356 100 430T270 504Q376 504 409 443V724H540ZM168 247Q168 182 202 145T290 107Q343 107 377 145T411
248Q411 312 377 348T290 385T203 348T168 247Z" />
<glyph unicode="e" glyph-name="e" horiz-adv-x="553" d="M168 302H388Q386 343 359 371T278 399Q230 399 200 369T168 302ZM401 174L512 141Q492 73 434 29T288 -15Q182 -15 108 56T34 248Q34 362 106 434T276 507Q390 507 454 439T519 252Q519 244 519 234T518
218L517 211H165Q167 163 203 131T289 99Q374 99 401 174Z" />
<glyph unicode="f" glyph-name="f" horiz-adv-x="356" d="M299 614Q271 614 251 599T230 546V492H341V378H230V0H96V378H14V492H96V548Q96 631 144 681T275 731Q319 731 341 721V609Q324 614 299 614Z" />
<glyph unicode="g" glyph-name="g" d="M36 -27L156 5Q163 -36 194 -62T271 -88Q402 -88 402 49V85Q385 58 350 40T265 22Q167 22 102 90T36 261Q36 361 101 431T265 501Q319 501 355 482T405 434V492H533V53Q533 -58 469 -131T275 -205Q178 -205 113 -153T36 -27ZM288
136Q339 136 371 170T404 261Q404 317 371 351T288 385Q237 385 204 351T170 261Q170 204 203 170T288 136Z" />
<glyph unicode="h" glyph-name="h" horiz-adv-x="584" d="M204 289V0H71V724H204V451Q249 505 337 505Q427 505 473 451T520 310V0H387V287Q387 331 365 358T296 385Q255 385 231 358T204 289Z" />
<glyph unicode="i" glyph-name="i" horiz-adv-x="275" d="M204 0H71V492H204V0ZM55 653Q55 687 79 711T137 736T195 712T219 653Q219 620 195 596T137 572T79 596T55 653Z" />
<glyph unicode="j" glyph-name="j" horiz-adv-x="275" d="M71 -30V492H204V-43Q204 -115 162 -160T50 -205Q1 -205 -25 -194V-83Q-3 -88 16 -88Q71 -88 71 -30ZM55 620T55 654T79 712T137 737T195 713T219 654Q219 620 195 597T137 573T79 596Z" />
<glyph unicode="k" glyph-name="k" horiz-adv-x="559" d="M548 492L351 285L552 0H389L259 188L204 130V0H71V724H204V309L374 492H548Z" />
<glyph unicode="l" glyph-name="l" horiz-adv-x="275" d="M204 0H71V724H204V0Z" />
<glyph unicode="m" glyph-name="m" horiz-adv-x="886" d="M204 0H71V492H198V432Q217 466 258 486T342 506Q449 506 488 424Q541 506 644 506Q719 506 770 459T822 319V0H693V292Q693 334 672 359T606 385Q565 385 540 357T515 288V0H383V292Q383 334 361 359T296
385Q254 385 229 358T204 288V0Z" />
<glyph unicode="n" glyph-name="n" horiz-adv-x="584" d="M204 283V0H71V492H200V431Q221 467 260 486T342 505Q429 505 474 451T520 310V0H387V287Q387 331 365 358T296 385Q254 385 229 356T204 283Z" />
<glyph unicode="o" glyph-name="o" horiz-adv-x="584" d="M240 106T292 106T380 143T417 246T381 349T292 386T204 349T167 246T203 143ZM181 507T292 507T476 433T550 246T477 59T292 -15T108 59T34 246T107 433Z" />
<glyph unicode="p" glyph-name="p" horiz-adv-x="612" d="M204 -190H71V492H200V432Q218 462 258 482T351 503Q456 503 517 432T578 247T514 61T346 -12Q248 -12 204 48V-190ZM447 182T447 246T413 347T325 384T237 347T202 246T237 145T325 107T412 144Z" />
<glyph unicode="q" glyph-name="q" horiz-adv-x="608" d="M541 -190H411V49Q373 -12 274 -12Q170 -12 102 61T34 247Q34 357 99 430T270 504Q328 504 364 483T414 435V492H541V-190ZM168 311T168 247T202 145T290 107T377 145T412 247T378 348T290 385T203 348Z" />
<glyph unicode="r" glyph-name="r" horiz-adv-x="391" d="M371 494V360Q351 364 331 364Q274 364 239 332T204 225V0H71V492H200V419Q236 496 340 496Q351 496 371 494Z" />
<glyph unicode="s" glyph-name="s" horiz-adv-x="461" d="M29 137L143 162Q145 130 168 109T233 87Q264 87 281 101T298 136Q298 173 245 184L180 199Q111 214 77 253T42 346Q42 413 94 460T226 507Q276 507 314 493T373 456T405 410T419 365L308 340Q304 366
285 386T227 406Q201 406 183 392T164 357Q164 321 209 313L279 298Q350 283 387 243T425 147Q425 81 375 33T234 -15Q182 -15 141 0T78 40T44 89T29 137Z" />
<glyph unicode="t" glyph-name="t" horiz-adv-x="373" d="M235 639V492H334V374H235V168Q235 137 249 124T293 111Q320 111 334 115V5Q305 -7 259 -7Q187 -7 145 33T103 145V374H14V492H39Q76 492 95 513T115 570V639H235Z" />
<glyph unicode="u" glyph-name="u" horiz-adv-x="586" d="M393 0Q389 20 389 53Q370 20 333 4T253 -13Q166 -13 116 42T66 181V492H199V208Q199 164 222 137T289 109Q332 109 357 135T382 206V492H515V89Q515 42 520 0H393Z" />
<glyph unicode="v" glyph-name="v" horiz-adv-x="545" d="M535 492L344 0H211L10 492H156L278 162L395 492H535Z" />
<glyph unicode="w" glyph-name="w" horiz-adv-x="831" d="M350 492H490L596 175L687 492H819L665 0H532L417 336L304 0H169L12 492H152L243 176L350 492Z" />
<glyph unicode="x" glyph-name="x" horiz-adv-x="532" d="M12 0L187 247L12 492H170Q179 478 219 419T268 346L365 492H516L344 251L522 0H366L263 151Q258 143 235 108T191 43T162 0H12Z" />
<glyph unicode="y" glyph-name="y" horiz-adv-x="560" d="M241 -194H100L216 62L7 492H156L287 204L408 492H550L241 -194Z" />
<glyph unicode="z" glyph-name="z" horiz-adv-x="481" d="M444 0H37V117L270 377H43V492H440V381L200 116H444V0Z" />
<glyph unicode="{" glyph-name="braceleft" horiz-adv-x="375" d="M45 271V382Q145 382 145 475V617Q145 713 196 761T339 810H370V709H340Q257 709 257 620V452Q257 405 231 372T156 326Q204 314 230 281T257 200V33Q257 -57 340 -57H370V-158H339Q247 -158 196
-109T145 36V178Q145 271 45 271Z" />
<glyph unicode="|" glyph-name="bar" horiz-adv-x="273" d="M192 -158H81V810H192V-158Z" />
<glyph unicode="}" glyph-name="braceright" horiz-adv-x="375" d="M330 382V271Q229 271 229 178V36Q229 -60 178 -109T36 -158H5V-57H34Q118 -57 118 33V200Q118 248 144 281T218 326Q170 339 144 372T118 452V620Q118 709 34 709H5V810H36Q128 810 178 762T229
617V475Q229 382 330 382Z" />
<glyph unicode="~" glyph-name="asciitilde" horiz-adv-x="583" d="M286 233L239 259Q214 272 189 272Q135 272 100 220L26 279Q83 384 192 384Q244 384 296 356L343 330Q367 316 396 316Q451 316 484 367L557 308Q500 204 392 204Q337 204 286 233Z" />
</font>
</defs>
</svg>
